<?xml version="1.0" encoding="utf-8"?>
<!-- Generator: Adobe Illustrator 23.1.1, SVG Export Plug-In . SVG Version: 6.00 Build 0)  -->
<svg version="1.1" id="Capa_1" xmlns="http://www.w3.org/2000/svg" xmlns:xlink="http://www.w3.org/1999/xlink" x="0px" y="0px"
	 viewBox="0 0 32 32" style="enable-background:new 0 0 32 32;" xml:space="preserve">
<style type="text/css">
	.st0{fill-rule:evenodd;clip-rule:evenodd;fill:url(#SVGID_1_);}
</style>
<linearGradient id="SVGID_1_" gradientUnits="userSpaceOnUse" x1="651.041" y1="-1202.2457" x2="651.041" y2="-35.8322" gradientTransform="matrix(2.457603e-02 0 0 -2.457603e-02 0 0.7864)">
	<stop  offset="0" style="stop-color:#F58529"/>
	<stop  offset="0.169" style="stop-color:#FEDA77"/>
	<stop  offset="0.478" style="stop-color:#DD2A7B"/>
	<stop  offset="0.78" style="stop-color:#8134AF"/>
	<stop  offset="1" style="stop-color:#515BD4"/>
</linearGradient>
<path class="st0" d="M16,1.5C24,1.5,30.5,8,30.5,16S24,30.5,16,30.5S1.5,24,1.5,16S8,1.5,16,1.5z M11.7,5.9h8.6
	c3.2,0,5.9,2.6,5.9,5.8v8.6c0,3.2-2.6,5.8-5.9,5.8l-8.6,0c-3.2,0-5.9-2.6-5.9-5.8v-8.6C5.8,8.5,8.5,5.9,11.7,5.9z M15.9,10.6
	c3.1,0,5.7,2.5,5.7,5.7c0,3.1-2.5,5.7-5.7,5.7c-3.1,0-5.7-2.5-5.7-5.7C10.3,13.1,12.8,10.6,15.9,10.6z M15.9,12.5
	c2.1,0,3.8,1.7,3.8,3.8c0,2.1-1.7,3.8-3.8,3.8c-2.1,0-3.8-1.7-3.8-3.8S13.9,12.5,15.9,12.5z M21.4,9.8c0.5,0,0.9,0.4,0.9,0.9
	c0,0.5-0.4,0.9-0.9,0.9c-0.5,0-0.9-0.4-0.9-0.9C20.5,10.2,20.9,9.8,21.4,9.8z M12.4,7.6h7.2c2.7,0,4.9,2.2,4.9,4.9v7.2
	c0,2.7-2.2,4.9-4.9,4.9l-7.2,0c-2.7,0-4.9-2.2-4.9-4.9v-7.2C7.5,9.8,9.7,7.6,12.4,7.6z"/>
</svg>
