<?xml version="1.0" encoding="utf-8"?>
<!-- Generator: Adobe Illustrator 23.1.1, SVG Export Plug-In . SVG Version: 6.00 Build 0)  -->
<svg version="1.1" id="Capa_1" xmlns="http://www.w3.org/2000/svg" xmlns:xlink="http://www.w3.org/1999/xlink" x="0px" y="0px"
	 viewBox="0 0 32 32" style="enable-background:new 0 0 32 32;" xml:space="preserve">
<style type="text/css">
	.st0{fill:#CB1F27;}
</style>
<g>
	<path class="st0" d="M0.9,16c0,6,3.7,11.1,9.1,13.3c0-1,0-2.2,0.3-3.3c0.3-1.2,1.9-7.9,1.9-7.9s-0.5-0.9-0.5-2.3
		c0-2.2,1.3-3.8,2.9-3.8c1.4,0,2,1,2,2.2c0,1.3-0.9,3.3-1.3,5.2c-0.4,1.5,0.8,2.8,2.4,2.8c2.9,0,4.8-3.5,4.8-7.7
		c0-3.2-2.2-5.6-6.3-5.6c-4.6,0-7.4,3.3-7.4,7c0,1.3,0.4,2.2,1,2.9C10,19,10,19.1,9.9,19.5c-0.1,0.3-0.2,0.9-0.3,1.2
		C9.5,21,9.2,21.1,8.9,21c-2.1-0.8-3.1-3.1-3.1-5.6c0-4.1,3.6-9.1,10.8-9.1c5.8,0,9.6,4,9.6,8.3c0,5.7-3.3,10-8.2,10
		c-1.6,0-3.2-0.8-3.7-1.8c0,0-0.9,3.3-1.1,4c-0.3,1.1-0.9,2.2-1.5,3.1c1.4,0.4,2.8,0.6,4.3,0.6c8.4,0,15.1-6.5,15.1-14.5
		c0-8-6.8-14.5-15.1-14.5C7.6,1.5,0.9,8,0.9,16z"/>
</g>
</svg>
