<?xml version="1.0" encoding="utf-8"?>
<!-- Generator: Adobe Illustrator 23.1.1, SVG Export Plug-In . SVG Version: 6.00 Build 0)  -->
<svg version="1.1" id="Capa_1" xmlns="http://www.w3.org/2000/svg" xmlns:xlink="http://www.w3.org/1999/xlink" x="0px" y="0px"
	 viewBox="0 0 32 32" style="enable-background:new 0 0 32 32;" xml:space="preserve">
<style type="text/css">
	.st0{fill:#FD2854;}
	.st1{fill:#24F6FA;}
	.st2{fill:#FFFFFF;}
</style>
<g>
	<circle cx="16" cy="16" r="15.1"/>
	<path class="st0" d="M17.5,5c1,0,2,0,3-0.1c0.2,0.7,0.6,1.7,1.4,2.7c1.7,2.2,4.1,2.8,4.9,2.9c0,1.3,0,2.7,0,4
		c-0.6,0-1.4-0.1-2.3-0.3c-1.5-0.4-2.6-1-3.3-1.5c0,0.4,0,1,0,1.8c0,1,0,1.6,0,2.2c0,3.7,0.1,4.4-0.2,5.9c-0.1,0.5-0.2,0.7-0.3,1
		c-0.6,1.7-2,3.1-3.4,3.9c-2.8,1.5-6.7,0.9-8.6-1.3c-1.4-1.7-1.7-4.3-1.7-5c0-0.1,0-0.2,0-0.2c0-0.6,0-1.5,0.4-2.7
		c0.3-0.9,1.2-2.8,3.3-3.9c1.8-1,3.6-0.9,4.2-0.8c0,1.4,0,2.7,0,4.1c-0.1,0-2.1-0.5-3.4,0.9c-1.2,1.3-1.1,3.4-0.1,4.5
		c0.5,0.5,1.1,0.7,1.5,0.9c0.2,0.1,1.7,0.5,2.9,0c1.8-0.8,2-2.8,2-2.9C17.5,15.6,17.5,10.3,17.5,5z"/>
	<path class="st1" d="M15.9,4c1.3,0,2.7,0,4,0c0,0.4,0.1,0.7,0.1,0.9c0.1,0.3,0.2,0.4,0.3,0.7c0,0,0.2,0.4,0.4,0.8
		c0.3,0.5,0.8,1.3,1.6,2c1.1,0.8,2.3,1.1,3,1.2c0,1,0,1.9,0.1,2.9c-0.8,0.1-2.4,0.3-4.1-0.3c-1.1-0.4-2-0.9-2.6-1.3
		c0.4,2.2,0.6,5.1,0,8.5c-0.6,3.3-0.9,5.4-2.7,6.7c-2.6,1.8-6.2,1-7.6,0.1c-0.7-0.4-1.2-1-1.2-1c-0.7-0.7-1.1-1.3-1.2-1.6
		c-0.2-0.3-0.9-1.6-0.9-3.4c0-0.6,0-1.7,0.5-2.8c0.2-0.6,1-2.6,3.3-3.9c2.1-1.2,4.1-0.9,4.7-0.8c0,1,0,2-0.1,3
		c-0.5-0.1-1.2-0.2-2.2-0.1c-0.6,0.1-1.1,0.1-1.8,0.5c-1.2,0.7-1.5,2-1.5,2.2C8,18.5,8,19,8.1,19.5c0,0.1,0.2,1,0.9,1.6
		c0.2,0.2,0.3,0.2,0.7,0.5c0.3,0.3,0.4,0.4,0.7,0.7c0,0,0.3,0.3,0.7,0.5c0.7,0.4,2,0.4,2.9,0c1.3-0.6,2-2.1,2-2.9
		C15.9,14.6,15.9,9.3,15.9,4z"/>
	<path class="st2" d="M17,5c1,0,2,0,3-0.1c0.3,0.8,1,2.2,2.4,3.4c1.1,1,2.3,1.6,3,1.9c0,1.1,0,2.2,0.1,3.3c-0.7,0-1.7,0-3-0.4
		c-1.2-0.4-2-0.9-2.6-1.3c0,2.8,0,5.7,0,8.5c0,0.3-0.3,3.9-3.5,5.9c-3.2,2-6.5,0.6-6.8,0.5c-0.2-0.1-0.5-0.2-0.8-0.4
		c-2.3-1.4-2.4-4.8-2.4-5.3c0-0.6,0-1.5,0.4-2.7c0.3-1,1.3-2.8,3.3-3.9c1.4-0.8,2.8-0.9,3.5-0.9c0,1,0,2,0,3.1
		c-0.2-0.1-1.5-0.4-2.7,0.4c-1.2,0.7-1.5,2-1.5,2.2c-0.1,0.3-0.2,0.7-0.1,1.3c0.1,0.8,0.6,1.2,0.8,1.5c0.5,0.6,1,0.8,1,0.8
		c0,0,0,0,0,0c0,0,0,0,0,0c0,0,0,0,0,0c0.2,0.3,0.6,0.7,1.2,1c1.1,0.5,2.2,0.3,2.9,0c1.8-0.8,2-2.8,2-2.9C17.1,15.6,17.1,10.3,17,5z
		"/>
	<path class="st1" d="M13.4,13.8"/>
	<path class="st2" d="M26.6,9.7"/>
</g>
</svg>
