<?xml version="1.0" encoding="utf-8"?>
<!-- Generator: Adobe Illustrator 23.1.1, SVG Export Plug-In . SVG Version: 6.00 Build 0)  -->
<svg version="1.1" id="Capa_1" xmlns="http://www.w3.org/2000/svg" xmlns:xlink="http://www.w3.org/1999/xlink" x="0px" y="0px"
	 viewBox="0 0 32 32" style="enable-background:new 0 0 32 32;" xml:space="preserve">
<style type="text/css">
	.st0{fill:#1D9BF0;}
</style>
<g>
	<path class="st0" d="M25.6,10.5C25,10.8,23.5,11,23.5,11c1.3-0.8,1.7-2.1,1.7-2.2c-1.1,0.7-2.3,1-2.3,1c-2.8-2.8-7.5-0.5-6.7,3.4
		c-4.7,0.1-8-4-8-4c-1.7,3.3,1.3,5.1,1.3,5.1c-1,0.2-1.9-0.4-1.9-0.4c0.2,3.3,3,3.8,3,3.8c-0.9,0.4-1.7,0.1-1.8,0.1
		c1.2,2.9,3.6,2.7,3.6,2.7C10.8,22.4,7,22.2,7,22.2c7.8,4.5,17.5-1,16.8-9.9C25,11.8,25.6,10.5,25.6,10.5z M16,0.9
		c8.3,0,15.1,6.7,15.1,15.1c0,8.3-6.7,15.1-15.1,15.1C7.7,31.1,0.9,24.3,0.9,16C0.9,7.7,7.7,0.9,16,0.9z"/>
</g>
</svg>
