<?xml version="1.0" encoding="utf-8"?>
<!-- Generator: Adobe Illustrator 23.1.1, SVG Export Plug-In . SVG Version: 6.00 Build 0)  -->
<svg version="1.1" id="Capa_1" xmlns="http://www.w3.org/2000/svg" xmlns:xlink="http://www.w3.org/1999/xlink" x="0px" y="0px"
	 viewBox="0 0 32 32" style="enable-background:new 0 0 32 32;" xml:space="preserve">
<style type="text/css">
	.st0{fill:#00C41C;}
</style>
<g id="XMLID_14_">
	<g id="XMLID_1_">
		<g>
			<path class="st0" d="M16,0.9c8.3,0,15.1,6.7,15.1,15.1S24.3,31.1,16,31.1S0.9,24.3,0.9,16S7.7,0.9,16,0.9z M25.5,16
				c0-5.3-4.3-9.5-9.5-9.5c-5.3,0-9.5,4.3-9.5,9.5c0,1.6,0.4,3.1,1.1,4.4l0,0.1l-0.7,5l5.1-0.9c1.2,0.6,2.6,0.9,4,0.9
				C21.3,25.5,25.5,21.3,25.5,16z"/>
			<path class="st0" d="M16,8c4.4,0,8,3.6,8,8c0,4.4-3.6,8-8,8c-1.4,0-2.7-0.3-3.8-1l-0.8,0.1L10,23.4l-1.2,0.2L9,22.5L9.2,21
				l0.1-0.7C8.5,19,8,17.6,8,16C8,11.6,11.6,8,16,8z M20.4,19.5c0.5-0.6,0-0.9-0.3-1.1c-0.3-0.2-0.6-0.4-0.9-0.6
				c-0.4-0.3-0.6-0.1-1.1,0.2c-0.2,0.2-0.4,0.4-0.6,0.6c-0.2,0.2-0.3,0.2-0.5,0c-2.5-1.4-3.2-3.1-3.4-3.7c0-0.2,0-0.2,0.1-0.3
				c0.9-0.7,0.5-1.4,0.5-1.4l-0.5-1.3c-0.2-0.5-0.5-0.8-1.1-0.4c-1,0.6-1.5,1.6-1.2,2.9c1,3.1,3.3,5.4,6.5,6.2
				c0.8,0.2,1.4,0.1,2-0.6L20.4,19.5z"/>
		</g>
	</g>
</g>
</svg>
