<?xml version="1.0" encoding="utf-8"?>
<!-- Generator: Adobe Illustrator 23.1.1, SVG Export Plug-In . SVG Version: 6.00 Build 0)  -->
<svg version="1.1" id="Capa_1" xmlns="http://www.w3.org/2000/svg" xmlns:xlink="http://www.w3.org/1999/xlink" x="0px" y="0px"
	 viewBox="0 0 32 32" style="enable-background:new 0 0 32 32;" xml:space="preserve">
<style type="text/css">
	.st0{fill:#E00006;}
</style>
<g>
	<path class="st0" d="M16,0.9c8.3,0,15.1,6.8,15.1,15.1c0,8.3-6.8,15.1-15.1,15.1C7.7,31.1,0.9,24.3,0.9,16C0.9,7.7,7.7,0.9,16,0.9z
		 M25.3,16c0-1.4-0.1-2.7-0.2-3.7c-0.3-2.1-1.4-2.5-3.5-2.7c-0.9-0.1-1.9-0.1-2.9-0.2c-1,0-1.9-0.1-2.7-0.1c-1.6,0-3.8,0.1-5.6,0.2
		c-2.1,0.2-3.3,0.5-3.5,2.7c-0.1,0.5-0.1,1.1-0.1,1.7c0,0.6,0,1.3,0,2c0,1.4,0.1,2.7,0.2,3.7c0.3,2.2,1.4,2.5,3.5,2.7
		c0.9,0.1,1.9,0.1,2.9,0.2c1,0,1.9,0,2.7,0c1.6,0,3.7,0,5.6-0.2c2.1-0.2,3.2-0.5,3.5-2.7c0.1-0.5,0.1-1,0.2-1.7
		C25.3,17.3,25.3,16.7,25.3,16z"/>
	<polygon class="st0" points="19,16 14.1,18.8 14.1,13.2 	"/>
</g>
</svg>
